<svg width="20" height="20" fill="none" xmlns="http://www.w3.org/2000/svg"><path fill-rule="evenodd" clip-rule="evenodd" d="M10 0C4.48 0 0 4.48 0 10s4.48 10 10 10c5.51 0 10-4.48 10-10S15.51 0 10 0zm6.605 4.61a8.502 8.502 0 011.93 5.314c-.28-.054-3.1-.629-5.943-.27-.065-.142-.12-.294-.184-.446-.177-.417-.365-.83-.564-1.236 3.145-1.28 4.577-3.124 4.761-3.363zM10 1.475c2.17 0 4.154.812 5.662 2.147-.152.216-1.443 1.941-4.48 3.08-1.4-2.57-2.95-4.676-3.189-5A8.687 8.687 0 0110 1.474zm-3.633.801c.227.305 1.746 2.42 3.166 4.936-3.991 1.063-7.516 1.041-7.895 1.041a8.584 8.584 0 014.729-5.976zm-4.914 7.734v-.26c.37.01 4.512.065 8.775-1.215.25.477.477.965.694 1.453-.109.033-.228.065-.336.098-4.404 1.42-6.747 5.303-6.942 5.629a8.522 8.522 0 01-2.19-5.705zM10 18.547a8.483 8.483 0 01-5.238-1.8c.151-.315 1.886-3.656 6.702-5.337.022-.01.034-.01.054-.022a35.349 35.349 0 011.823 6.475 8.397 8.397 0 01-3.341.684zm4.762-1.465c-.087-.52-.543-3.014-1.66-6.085 2.679-.422 5.021.272 5.315.37a8.472 8.472 0 01-3.655 5.715z" fill="#FDF9F0"/></svg>