<svg width="22" height="22" fill="none" xmlns="http://www.w3.org/2000/svg"><g clip-path="url(#clip0_1480_33)" fill="#FDF9F0"><path d="M19.757 3.667a1.222 1.222 0 00-.25 0H2.396c-.11.001-.219.018-.324.048l8.83 8.794 8.855-8.842z"/><path d="M20.662 4.516l-8.898 8.86a1.222 1.222 0 01-1.723 0L1.222 4.584c-.027.1-.041.202-.042.305v12.223a1.222 1.222 0 001.222 1.222h17.111a1.222 1.222 0 001.222-1.222V4.888a1.221 1.221 0 00-.073-.372zM3.239 17.11h-.85v-.874l4.443-4.406.862.861-4.455 4.419zm16.262 0h-.856l-4.455-4.419.862-.861 4.443 4.406.006.874z"/></g><defs><clipPath id="clip0_1480_33"><path fill="#fff" d="M0 0h22v22H0z"/></clipPath></defs></svg>